<?xml version="1.0" encoding="utf-8"?>
<!-- Svg Vector Icons : http://www.onlinewebfonts.com/icon -->
<!DOCTYPE svg PUBLIC "-//W3C//DTD SVG 1.1//EN" "http://www.w3.org/Graphics/SVG/1.1/DTD/svg11.dtd">
<svg version="1.1" xmlns="http://www.w3.org/2000/svg" xmlns:xlink="http://www.w3.org/1999/xlink" x="0px" y="0px" viewBox="0 0 1000 1000" enable-background="new 0 0 1000 1000" xml:space="preserve">
<metadata> Svg Vector Icons : http://www.onlinewebfonts.com/icon </metadata>
<g><g transform="translate(0.000000,511.000000) scale(0.100000,-0.100000)"><path d="M1843.3,4527c-230.3-148.1-712.9-691-967.9-1091.3C-262.6,1645.1-139.2-663.7,1187.9-2330.8c537.4-674.6,1305.2-1228.4,2125.1-1532.8l219.4-82.3l-789.7-2.7H1953l-65.8-68.5c-90.5-87.8-90.5-213.9,0-301.6l65.8-68.5h3046.4h3046.4l65.8,68.5c90.5,87.8,90.5,213.9,0,301.6l-65.8,68.5h-789.7l-789.7,2.7l219.4,82.3c1582.2,586.8,2747.5,1944.1,3109.5,3616.7c351,1637-194.7,3408.3-1412.1,4581.9c-315.3,301.6,57.6,271.5-3391.9,271.5H1966.7L1843.3,4527z M8045.8,4058.1c170-145.3,477.1-512.8,669.1-795.2c137.1-202.9,425-748.6,425-800.7c0-11-115.2,30.2-257.8,90.5c-529.2,219.4-1069.4,318.1-1590.4,290.7c-603.2-35.7-1047.4-148.1-2103.1-534.7c-1357.3-499.1-1642.5-567.6-2396.5-567.6c-556.6,0-660.8,13.7-1124.2,153.6c-318.1,98.7-863.7,345.5-863.7,397.6c0,68.6,200.2,507.3,342.8,745.8c197.4,334.5,419.5,627.9,688.3,902.1l222.1,227.6h2931.2h2931.2L8045.8,4058.1z M8086.9,2341.6c282.5-57.6,625.2-181,915.9-326.3c342.8-172.7,345.5-175.5,394.9-479.9c159-951.5,24.7-1894.7-397.6-2758.5c-570.4-1170.8-1648-2048.3-2909.3-2371.8C3214.3-4327,403.7-2029.2,540.8,945.9c13.7,301.6,68.5,732.1,112.4,855.5c8.2,21.9,96-5.5,277-90.5c381.1-175.5,792.4-307.1,1173.6-372.9c279.7-46.6,405.8-52.1,811.6-41.1c669.1,19.2,1121.5,123.4,2073,474.4c1165.3,430.5,1587.6,556.6,2040.1,614.2C7302.7,2418.4,7815.4,2396.4,8086.9,2341.6z"/><path d="M7947.1,1401.1c-123.4-54.8-192-164.5-192-307.1c0-115.2,13.7-145.3,90.5-222.1c76.8-76.8,107-90.5,224.8-90.5c117.9,0,148.1,13.7,224.9,90.5c76.8,76.8,90.5,107,90.5,224.9c0,115.2-13.7,148.1-85,222.1C8210.3,1409.3,8048.5,1445,7947.1,1401.1z"/><path d="M6959.9,194.6C6836.5,139.7,6768,30.1,6768-112.5c0-115.1,13.7-145.3,90.5-222.1s106.9-90.5,224.9-90.5c117.9,0,148.1,13.7,224.9,90.5s90.5,107,90.5,224.9c0,115.2-13.7,148-85,222.1C7223.2,202.8,7061.4,238.5,6959.9,194.6z"/><path d="M4272.7-38.5c-224.9-54.8-372.9-109.7-581.3-219.4l-175.5-93.2l-156.3,93.2c-224.9,137.1-405.8,183.7-671.8,170c-274.2-11-416.8-74-493.6-222.1c-49.4-96-49.4-104.2,0-312.6c60.3-266,60.3-803.4-2.7-1116c-49.4-246.8-24.7-345.5,106.9-449.7c241.3-189.2,770.5-145.4,1116,93.2l101.4,71.3l145.3-82.3c359.2-202.9,819.9-301.6,1176.3-252.3c361.9,52.1,625.2,161.8,984.4,414c200.2,139.9,641.7,564.9,729.4,699.2c43.9,65.8,41.1,71.3-112.4,246.8c-375.7,425-847.3,767.8-1250.4,899.4C4906.1-5.6,4525,19.1,4272.7-38.5z M4952.7-480c287.9-74,600.5-266,937.8-570.3l137.1-123.4L5876.8-1330c-82.3-85-252.3-222.1-378.4-307.1c-625.2-419.5-1217.5-397.6-1867.3,71.3l-205.6,145.3l-43.9-63.1c-167.3-257.7-372.9-381.1-638.9-381.1h-134.4l16.5,90.5c46.6,227.6,65.8,649.9,41.1,896.7c-13.7,142.6-30.2,285.2-32.9,315.3c-5.5,49.3,8.2,54.8,145.3,49.3c222.1-11,414-115.2,542.9-293.4l101.5-145.3l208.4,148.1C4097.2-477.2,4533.2-370.3,4952.7-480z"/><path d="M5218.7-995.4c-109.7-54.8-153.6-159.1-112.4-260.5c68.6-167.3,309.9-178.2,383.9-16.5c43.9,98.7,38.4,137.1-30.2,213.9C5380.5-973.5,5303.7-951.6,5218.7-995.4z"/></g></g>
</svg>